<mxfile host="app.diagrams.net" modified="2022-08-23T16:00:47.500Z" agent="5.0 (Windows NT 10.0; Win64; x64) AppleWebKit/537.36 (KHTML, like Gecko) Chrome/104.0.0.0 Safari/537.36" etag="Di8V7Rg_Z49eN8jxjk_q" version="20.2.4" type="github">
  <diagram id="C5RBs43oDa-KdzZeNtuy" name="Page-1">
    <mxGraphModel dx="2958" dy="1781" grid="1" gridSize="10" guides="1" tooltips="1" connect="1" arrows="1" fold="1" page="1" pageScale="1" pageWidth="827" pageHeight="1169" math="0" shadow="0">
      <root>
        <mxCell id="WIyWlLk6GJQsqaUBKTNV-0" />
        <mxCell id="WIyWlLk6GJQsqaUBKTNV-1" parent="WIyWlLk6GJQsqaUBKTNV-0" />
        <mxCell id="RtsX9g8vJlGccVRcH5uq-3" style="edgeStyle=orthogonalEdgeStyle;rounded=0;orthogonalLoop=1;jettySize=auto;html=1;entryX=0;entryY=0.5;entryDx=0;entryDy=0;" edge="1" parent="WIyWlLk6GJQsqaUBKTNV-1" source="WIyWlLk6GJQsqaUBKTNV-3" target="RtsX9g8vJlGccVRcH5uq-2">
          <mxGeometry relative="1" as="geometry">
            <Array as="points">
              <mxPoint x="-50" y="260" />
            </Array>
          </mxGeometry>
        </mxCell>
        <mxCell id="RtsX9g8vJlGccVRcH5uq-6" value="Informasi Sekolah&lt;br&gt;Informasi Kandidat" style="edgeLabel;html=1;align=center;verticalAlign=middle;resizable=0;points=[];" vertex="1" connectable="0" parent="RtsX9g8vJlGccVRcH5uq-3">
          <mxGeometry x="0.26" y="-3" relative="1" as="geometry">
            <mxPoint x="39" y="-23" as="offset" />
          </mxGeometry>
        </mxCell>
        <mxCell id="WIyWlLk6GJQsqaUBKTNV-3" value="User Anon" style="rounded=1;whiteSpace=wrap;html=1;fontSize=12;glass=0;strokeWidth=1;shadow=0;" parent="WIyWlLk6GJQsqaUBKTNV-1" vertex="1">
          <mxGeometry x="-110" y="20" width="120" height="40" as="geometry" />
        </mxCell>
        <mxCell id="RtsX9g8vJlGccVRcH5uq-5" style="edgeStyle=orthogonalEdgeStyle;rounded=0;orthogonalLoop=1;jettySize=auto;html=1;entryX=1;entryY=0.5;entryDx=0;entryDy=0;" edge="1" parent="WIyWlLk6GJQsqaUBKTNV-1" source="RtsX9g8vJlGccVRcH5uq-0" target="RtsX9g8vJlGccVRcH5uq-2">
          <mxGeometry relative="1" as="geometry">
            <Array as="points">
              <mxPoint x="370" y="260" />
            </Array>
          </mxGeometry>
        </mxCell>
        <mxCell id="RtsX9g8vJlGccVRcH5uq-9" value="Data Voting&lt;br&gt;Data Siswa" style="edgeLabel;html=1;align=center;verticalAlign=middle;resizable=0;points=[];" vertex="1" connectable="0" parent="RtsX9g8vJlGccVRcH5uq-5">
          <mxGeometry x="0.4171" y="2" relative="1" as="geometry">
            <mxPoint y="-22" as="offset" />
          </mxGeometry>
        </mxCell>
        <mxCell id="RtsX9g8vJlGccVRcH5uq-0" value="Admin" style="rounded=1;whiteSpace=wrap;html=1;fontSize=12;glass=0;strokeWidth=1;shadow=0;" vertex="1" parent="WIyWlLk6GJQsqaUBKTNV-1">
          <mxGeometry x="310" y="20" width="120" height="40" as="geometry" />
        </mxCell>
        <mxCell id="RtsX9g8vJlGccVRcH5uq-4" style="edgeStyle=orthogonalEdgeStyle;rounded=0;orthogonalLoop=1;jettySize=auto;html=1;entryX=0.5;entryY=0;entryDx=0;entryDy=0;" edge="1" parent="WIyWlLk6GJQsqaUBKTNV-1" source="RtsX9g8vJlGccVRcH5uq-1" target="RtsX9g8vJlGccVRcH5uq-2">
          <mxGeometry relative="1" as="geometry" />
        </mxCell>
        <mxCell id="RtsX9g8vJlGccVRcH5uq-1" value="Siswa" style="rounded=1;whiteSpace=wrap;html=1;fontSize=12;glass=0;strokeWidth=1;shadow=0;" vertex="1" parent="WIyWlLk6GJQsqaUBKTNV-1">
          <mxGeometry x="100" y="20" width="120" height="40" as="geometry" />
        </mxCell>
        <mxCell id="RtsX9g8vJlGccVRcH5uq-2" value="SI VOTING OSIS" style="ellipse;whiteSpace=wrap;html=1;aspect=fixed;" vertex="1" parent="WIyWlLk6GJQsqaUBKTNV-1">
          <mxGeometry x="100" y="200" width="120" height="120" as="geometry" />
        </mxCell>
        <mxCell id="RtsX9g8vJlGccVRcH5uq-7" value="Hak Voting&lt;br&gt;Hak Mencalonkan" style="edgeLabel;html=1;align=center;verticalAlign=middle;resizable=0;points=[];rotation=90;" vertex="1" connectable="0" parent="WIyWlLk6GJQsqaUBKTNV-1">
          <mxGeometry x="180" y="120" as="geometry" />
        </mxCell>
        <mxCell id="RtsX9g8vJlGccVRcH5uq-10" value="&lt;h1&gt;&lt;font style=&quot;font-size: 36px;&quot;&gt;DFD LVL 0&lt;/font&gt;&lt;/h1&gt;" style="text;html=1;align=center;verticalAlign=middle;resizable=0;points=[];autosize=1;strokeColor=none;fillColor=none;" vertex="1" parent="WIyWlLk6GJQsqaUBKTNV-1">
          <mxGeometry x="60" y="-125" width="200" height="90" as="geometry" />
        </mxCell>
        <mxCell id="RtsX9g8vJlGccVRcH5uq-11" value="&lt;h1&gt;&lt;font style=&quot;font-size: 36px;&quot;&gt;DFD LVL 1&lt;/font&gt;&lt;/h1&gt;" style="text;html=1;align=center;verticalAlign=middle;resizable=0;points=[];autosize=1;strokeColor=none;fillColor=none;" vertex="1" parent="WIyWlLk6GJQsqaUBKTNV-1">
          <mxGeometry x="60" y="400" width="200" height="90" as="geometry" />
        </mxCell>
        <mxCell id="RtsX9g8vJlGccVRcH5uq-21" style="edgeStyle=orthogonalEdgeStyle;rounded=0;orthogonalLoop=1;jettySize=auto;html=1;entryX=0.5;entryY=0;entryDx=0;entryDy=0;fontFamily=Helvetica;fontSize=12;" edge="1" parent="WIyWlLk6GJQsqaUBKTNV-1" source="RtsX9g8vJlGccVRcH5uq-12" target="RtsX9g8vJlGccVRcH5uq-16">
          <mxGeometry relative="1" as="geometry" />
        </mxCell>
        <mxCell id="RtsX9g8vJlGccVRcH5uq-12" value="User Anon" style="rounded=1;whiteSpace=wrap;html=1;fontSize=12;glass=0;strokeWidth=1;shadow=0;" vertex="1" parent="WIyWlLk6GJQsqaUBKTNV-1">
          <mxGeometry x="100" y="510" width="120" height="40" as="geometry" />
        </mxCell>
        <mxCell id="RtsX9g8vJlGccVRcH5uq-14" value="Admin" style="rounded=1;whiteSpace=wrap;html=1;fontSize=12;glass=0;strokeWidth=1;shadow=0;" vertex="1" parent="WIyWlLk6GJQsqaUBKTNV-1">
          <mxGeometry x="540" y="510" width="120" height="40" as="geometry" />
        </mxCell>
        <mxCell id="RtsX9g8vJlGccVRcH5uq-19" style="edgeStyle=orthogonalEdgeStyle;rounded=0;orthogonalLoop=1;jettySize=auto;html=1;entryX=0.5;entryY=0;entryDx=0;entryDy=0;fontFamily=Helvetica;fontSize=12;" edge="1" parent="WIyWlLk6GJQsqaUBKTNV-1" source="RtsX9g8vJlGccVRcH5uq-16" target="RtsX9g8vJlGccVRcH5uq-18">
          <mxGeometry relative="1" as="geometry" />
        </mxCell>
        <mxCell id="RtsX9g8vJlGccVRcH5uq-20" style="edgeStyle=orthogonalEdgeStyle;rounded=0;orthogonalLoop=1;jettySize=auto;html=1;entryX=0.5;entryY=0;entryDx=0;entryDy=0;fontFamily=Helvetica;fontSize=12;" edge="1" parent="WIyWlLk6GJQsqaUBKTNV-1" source="RtsX9g8vJlGccVRcH5uq-16" target="RtsX9g8vJlGccVRcH5uq-17">
          <mxGeometry relative="1" as="geometry" />
        </mxCell>
        <mxCell id="RtsX9g8vJlGccVRcH5uq-16" value="Home&lt;br&gt;Informasi Sekolah&lt;br&gt;Informasi Kandidat" style="rounded=0;whiteSpace=wrap;html=1;fontFamily=Helvetica;fontSize=12;" vertex="1" parent="WIyWlLk6GJQsqaUBKTNV-1">
          <mxGeometry x="100" y="620" width="120" height="60" as="geometry" />
        </mxCell>
        <mxCell id="RtsX9g8vJlGccVRcH5uq-24" style="edgeStyle=orthogonalEdgeStyle;rounded=0;orthogonalLoop=1;jettySize=auto;html=1;entryX=0;entryY=0.5;entryDx=0;entryDy=0;fontFamily=Helvetica;fontSize=12;" edge="1" parent="WIyWlLk6GJQsqaUBKTNV-1" source="RtsX9g8vJlGccVRcH5uq-17" target="RtsX9g8vJlGccVRcH5uq-22">
          <mxGeometry relative="1" as="geometry">
            <Array as="points">
              <mxPoint x="10" y="890" />
            </Array>
          </mxGeometry>
        </mxCell>
        <mxCell id="RtsX9g8vJlGccVRcH5uq-37" style="edgeStyle=orthogonalEdgeStyle;rounded=0;orthogonalLoop=1;jettySize=auto;html=1;fontFamily=Helvetica;fontSize=12;" edge="1" parent="WIyWlLk6GJQsqaUBKTNV-1" source="RtsX9g8vJlGccVRcH5uq-17">
          <mxGeometry relative="1" as="geometry">
            <mxPoint x="-1050" y="770" as="targetPoint" />
            <Array as="points">
              <mxPoint x="-1040" y="770" />
            </Array>
          </mxGeometry>
        </mxCell>
        <mxCell id="RtsX9g8vJlGccVRcH5uq-17" value="Login Siswa" style="ellipse;whiteSpace=wrap;html=1;aspect=fixed;fontFamily=Helvetica;fontSize=12;" vertex="1" parent="WIyWlLk6GJQsqaUBKTNV-1">
          <mxGeometry x="-30" y="730" width="80" height="80" as="geometry" />
        </mxCell>
        <mxCell id="RtsX9g8vJlGccVRcH5uq-23" style="edgeStyle=orthogonalEdgeStyle;rounded=0;orthogonalLoop=1;jettySize=auto;html=1;entryX=1;entryY=0.5;entryDx=0;entryDy=0;fontFamily=Helvetica;fontSize=12;" edge="1" parent="WIyWlLk6GJQsqaUBKTNV-1" source="RtsX9g8vJlGccVRcH5uq-18" target="RtsX9g8vJlGccVRcH5uq-22">
          <mxGeometry relative="1" as="geometry">
            <Array as="points">
              <mxPoint x="300" y="890" />
            </Array>
          </mxGeometry>
        </mxCell>
        <mxCell id="RtsX9g8vJlGccVRcH5uq-18" value="Login Kandidat" style="ellipse;whiteSpace=wrap;html=1;aspect=fixed;fontFamily=Helvetica;fontSize=12;" vertex="1" parent="WIyWlLk6GJQsqaUBKTNV-1">
          <mxGeometry x="260" y="730" width="80" height="80" as="geometry" />
        </mxCell>
        <mxCell id="RtsX9g8vJlGccVRcH5uq-29" style="edgeStyle=orthogonalEdgeStyle;rounded=0;orthogonalLoop=1;jettySize=auto;html=1;fontFamily=Helvetica;fontSize=12;" edge="1" parent="WIyWlLk6GJQsqaUBKTNV-1" source="RtsX9g8vJlGccVRcH5uq-22" target="RtsX9g8vJlGccVRcH5uq-26">
          <mxGeometry relative="1" as="geometry">
            <Array as="points">
              <mxPoint x="160" y="970" />
              <mxPoint x="110" y="970" />
            </Array>
          </mxGeometry>
        </mxCell>
        <mxCell id="RtsX9g8vJlGccVRcH5uq-30" style="edgeStyle=orthogonalEdgeStyle;rounded=0;orthogonalLoop=1;jettySize=auto;html=1;fontFamily=Helvetica;fontSize=12;" edge="1" parent="WIyWlLk6GJQsqaUBKTNV-1" source="RtsX9g8vJlGccVRcH5uq-22" target="RtsX9g8vJlGccVRcH5uq-27">
          <mxGeometry relative="1" as="geometry">
            <Array as="points">
              <mxPoint x="160" y="970" />
              <mxPoint x="220" y="970" />
            </Array>
          </mxGeometry>
        </mxCell>
        <mxCell id="RtsX9g8vJlGccVRcH5uq-31" style="edgeStyle=orthogonalEdgeStyle;rounded=0;orthogonalLoop=1;jettySize=auto;html=1;entryX=0.5;entryY=0;entryDx=0;entryDy=0;fontFamily=Helvetica;fontSize=12;" edge="1" parent="WIyWlLk6GJQsqaUBKTNV-1" source="RtsX9g8vJlGccVRcH5uq-22" target="RtsX9g8vJlGccVRcH5uq-28">
          <mxGeometry relative="1" as="geometry">
            <Array as="points">
              <mxPoint x="160" y="970" />
              <mxPoint x="330" y="970" />
            </Array>
          </mxGeometry>
        </mxCell>
        <mxCell id="RtsX9g8vJlGccVRcH5uq-32" value="Khusus Kandidat" style="edgeLabel;html=1;align=center;verticalAlign=middle;resizable=0;points=[];fontSize=12;fontFamily=Helvetica;" vertex="1" connectable="0" parent="RtsX9g8vJlGccVRcH5uq-31">
          <mxGeometry x="0.5391" y="2" relative="1" as="geometry">
            <mxPoint x="-27" y="-8" as="offset" />
          </mxGeometry>
        </mxCell>
        <mxCell id="RtsX9g8vJlGccVRcH5uq-36" style="edgeStyle=orthogonalEdgeStyle;rounded=0;orthogonalLoop=1;jettySize=auto;html=1;entryX=0.5;entryY=0;entryDx=0;entryDy=0;fontFamily=Helvetica;fontSize=12;" edge="1" parent="WIyWlLk6GJQsqaUBKTNV-1" source="RtsX9g8vJlGccVRcH5uq-22" target="RtsX9g8vJlGccVRcH5uq-34">
          <mxGeometry relative="1" as="geometry">
            <Array as="points">
              <mxPoint x="160" y="970" />
              <mxPoint y="970" />
            </Array>
          </mxGeometry>
        </mxCell>
        <mxCell id="RtsX9g8vJlGccVRcH5uq-22" value="Home" style="rounded=0;whiteSpace=wrap;html=1;fontFamily=Helvetica;fontSize=12;" vertex="1" parent="WIyWlLk6GJQsqaUBKTNV-1">
          <mxGeometry x="100" y="860" width="120" height="60" as="geometry" />
        </mxCell>
        <mxCell id="RtsX9g8vJlGccVRcH5uq-26" value="Voting&lt;span style=&quot;color: rgba(0, 0, 0, 0); font-family: monospace; font-size: 0px; text-align: start;&quot;&gt;%3CmxGraphModel%3E%3Croot%3E%3CmxCell%20id%3D%220%22%2F%3E%3CmxCell%20id%3D%221%22%20parent%3D%220%22%2F%3E%3CmxCell%20id%3D%222%22%20value%3D%22Home%26lt%3Bbr%26gt%3BInformasi%20Sekolah%26lt%3Bbr%26gt%3BInformasi%20Kandidat%22%20style%3D%22rounded%3D0%3BwhiteSpace%3Dwrap%3Bhtml%3D1%3BfontFamily%3DHelvetica%3BfontSize%3D12%3B%22%20vertex%3D%221%22%20parent%3D%221%22%3E%3CmxGeometry%20x%3D%22100%22%20y%3D%22620%22%20width%3D%22120%22%20height%3D%2260%22%20as%3D%22geometry%22%2F%3E%3C%2FmxCell%3E%3C%2Froot%3E%3C%2FmxGraphModel%3E&lt;/span&gt;" style="ellipse;whiteSpace=wrap;html=1;aspect=fixed;fontFamily=Helvetica;fontSize=12;" vertex="1" parent="WIyWlLk6GJQsqaUBKTNV-1">
          <mxGeometry x="70" y="1010" width="80" height="80" as="geometry" />
        </mxCell>
        <mxCell id="RtsX9g8vJlGccVRcH5uq-27" value="Edit Profil Siswa" style="ellipse;whiteSpace=wrap;html=1;aspect=fixed;fontFamily=Helvetica;fontSize=12;" vertex="1" parent="WIyWlLk6GJQsqaUBKTNV-1">
          <mxGeometry x="180" y="1010" width="80" height="80" as="geometry" />
        </mxCell>
        <mxCell id="RtsX9g8vJlGccVRcH5uq-28" value="Edit Profil Kandidat" style="ellipse;whiteSpace=wrap;html=1;aspect=fixed;fontFamily=Helvetica;fontSize=12;" vertex="1" parent="WIyWlLk6GJQsqaUBKTNV-1">
          <mxGeometry x="290" y="1010" width="80" height="80" as="geometry" />
        </mxCell>
        <mxCell id="RtsX9g8vJlGccVRcH5uq-34" value="Mengajukan&lt;br&gt;Menjadi Kandidat" style="ellipse;whiteSpace=wrap;html=1;aspect=fixed;fontFamily=Helvetica;fontSize=12;" vertex="1" parent="WIyWlLk6GJQsqaUBKTNV-1">
          <mxGeometry x="-40" y="1010" width="80" height="80" as="geometry" />
        </mxCell>
        <mxCell id="RtsX9g8vJlGccVRcH5uq-38" value="&lt;h1&gt;&lt;font style=&quot;font-size: 36px;&quot;&gt;Subprocess Login Siswa&lt;/font&gt;&lt;/h1&gt;" style="text;html=1;align=center;verticalAlign=middle;resizable=0;points=[];autosize=1;strokeColor=none;fillColor=none;" vertex="1" parent="WIyWlLk6GJQsqaUBKTNV-1">
          <mxGeometry x="-1500" y="720" width="450" height="90" as="geometry" />
        </mxCell>
        <mxCell id="RtsX9g8vJlGccVRcH5uq-42" style="edgeStyle=orthogonalEdgeStyle;rounded=0;orthogonalLoop=1;jettySize=auto;html=1;entryX=0.5;entryY=0;entryDx=0;entryDy=0;fontFamily=Helvetica;fontSize=12;" edge="1" parent="WIyWlLk6GJQsqaUBKTNV-1" source="RtsX9g8vJlGccVRcH5uq-39" target="RtsX9g8vJlGccVRcH5uq-40">
          <mxGeometry relative="1" as="geometry">
            <Array as="points">
              <mxPoint x="-1290" y="930" />
              <mxPoint x="-1440" y="930" />
            </Array>
          </mxGeometry>
        </mxCell>
        <mxCell id="RtsX9g8vJlGccVRcH5uq-48" value="Belum" style="edgeLabel;html=1;align=center;verticalAlign=middle;resizable=0;points=[];fontSize=12;fontFamily=Helvetica;" vertex="1" connectable="0" parent="RtsX9g8vJlGccVRcH5uq-42">
          <mxGeometry x="0.107" y="2" relative="1" as="geometry">
            <mxPoint as="offset" />
          </mxGeometry>
        </mxCell>
        <mxCell id="RtsX9g8vJlGccVRcH5uq-43" style="edgeStyle=orthogonalEdgeStyle;rounded=0;orthogonalLoop=1;jettySize=auto;html=1;entryX=0.5;entryY=0;entryDx=0;entryDy=0;fontFamily=Helvetica;fontSize=12;startArrow=none;" edge="1" parent="WIyWlLk6GJQsqaUBKTNV-1" source="RtsX9g8vJlGccVRcH5uq-44" target="RtsX9g8vJlGccVRcH5uq-41">
          <mxGeometry relative="1" as="geometry">
            <Array as="points">
              <mxPoint x="-1120" y="930" />
            </Array>
          </mxGeometry>
        </mxCell>
        <mxCell id="RtsX9g8vJlGccVRcH5uq-49" value="Sudah" style="edgeLabel;html=1;align=center;verticalAlign=middle;resizable=0;points=[];fontSize=12;fontFamily=Helvetica;" vertex="1" connectable="0" parent="RtsX9g8vJlGccVRcH5uq-43">
          <mxGeometry x="-0.4613" y="-5" relative="1" as="geometry">
            <mxPoint as="offset" />
          </mxGeometry>
        </mxCell>
        <mxCell id="RtsX9g8vJlGccVRcH5uq-39" value="User Anon" style="rounded=1;whiteSpace=wrap;html=1;fontFamily=Helvetica;fontSize=12;" vertex="1" parent="WIyWlLk6GJQsqaUBKTNV-1">
          <mxGeometry x="-1350" y="810" width="120" height="60" as="geometry" />
        </mxCell>
        <mxCell id="RtsX9g8vJlGccVRcH5uq-50" style="edgeStyle=orthogonalEdgeStyle;rounded=0;orthogonalLoop=1;jettySize=auto;html=1;entryX=0.5;entryY=1;entryDx=0;entryDy=0;fontFamily=Helvetica;fontSize=12;" edge="1" parent="WIyWlLk6GJQsqaUBKTNV-1" source="RtsX9g8vJlGccVRcH5uq-40" target="RtsX9g8vJlGccVRcH5uq-44">
          <mxGeometry relative="1" as="geometry" />
        </mxCell>
        <mxCell id="RtsX9g8vJlGccVRcH5uq-40" value="Register" style="ellipse;whiteSpace=wrap;html=1;aspect=fixed;fontFamily=Helvetica;fontSize=12;" vertex="1" parent="WIyWlLk6GJQsqaUBKTNV-1">
          <mxGeometry x="-1480" y="1010" width="80" height="80" as="geometry" />
        </mxCell>
        <mxCell id="RtsX9g8vJlGccVRcH5uq-47" style="edgeStyle=orthogonalEdgeStyle;rounded=0;orthogonalLoop=1;jettySize=auto;html=1;entryX=0.5;entryY=0;entryDx=0;entryDy=0;fontFamily=Helvetica;fontSize=12;" edge="1" parent="WIyWlLk6GJQsqaUBKTNV-1" source="RtsX9g8vJlGccVRcH5uq-41" target="RtsX9g8vJlGccVRcH5uq-46">
          <mxGeometry relative="1" as="geometry" />
        </mxCell>
        <mxCell id="RtsX9g8vJlGccVRcH5uq-41" value="Autentikasi&lt;br&gt;akun" style="ellipse;whiteSpace=wrap;html=1;aspect=fixed;fontFamily=Helvetica;fontSize=12;" vertex="1" parent="WIyWlLk6GJQsqaUBKTNV-1">
          <mxGeometry x="-1160" y="980" width="80" height="80" as="geometry" />
        </mxCell>
        <mxCell id="RtsX9g8vJlGccVRcH5uq-44" value="Sudah Registrasi?" style="ellipse;whiteSpace=wrap;html=1;aspect=fixed;fontFamily=Helvetica;fontSize=12;" vertex="1" parent="WIyWlLk6GJQsqaUBKTNV-1">
          <mxGeometry x="-1330" y="890" width="80" height="80" as="geometry" />
        </mxCell>
        <mxCell id="RtsX9g8vJlGccVRcH5uq-45" value="" style="edgeStyle=orthogonalEdgeStyle;rounded=0;orthogonalLoop=1;jettySize=auto;html=1;entryX=0.5;entryY=0;entryDx=0;entryDy=0;fontFamily=Helvetica;fontSize=12;endArrow=none;" edge="1" parent="WIyWlLk6GJQsqaUBKTNV-1" source="RtsX9g8vJlGccVRcH5uq-39" target="RtsX9g8vJlGccVRcH5uq-44">
          <mxGeometry relative="1" as="geometry">
            <mxPoint x="-1290" y="870" as="sourcePoint" />
            <mxPoint x="-1210" y="990" as="targetPoint" />
          </mxGeometry>
        </mxCell>
        <mxCell id="RtsX9g8vJlGccVRcH5uq-46" value="Home&lt;br&gt;+Fitur Mengajukan&lt;br&gt;+Fitur Edit Profil&lt;br&gt;+Fitur Hak Voting" style="rounded=0;whiteSpace=wrap;html=1;fontFamily=Helvetica;fontSize=12;" vertex="1" parent="WIyWlLk6GJQsqaUBKTNV-1">
          <mxGeometry x="-1330" y="1109" width="120" height="60" as="geometry" />
        </mxCell>
      </root>
    </mxGraphModel>
  </diagram>
</mxfile>
